#N canvas -9 -9 1920 978 24;
#X obj -69 462 output~;
#X floatatom -661 90 5 0 0 0 - - -;
#X obj -661 41 * 1;
#X floatatom -554 92 5 0 0 0 - - -;
#X floatatom -450 91 5 0 0 0 - - -;
#X floatatom -350 95 5 0 0 0 - - -;
#X floatatom -253 96 5 0 0 0 - - -;
#X floatatom -148 100 5 0 0 0 - - -;
#X floatatom -35 104 5 0 0 0 - - -;
#X floatatom 64 107 5 0 0 0 - - -;
#X obj -661 132 osc~;
#X obj -554 134 osc~;
#X obj -450 133 osc~;
#X obj -350 137 osc~;
#X obj -253 138 osc~;
#X obj -148 142 osc~;
#X obj -35 146 osc~;
#X obj 64 149 osc~;
#X obj -49 410 *~ 0.9;
#X obj -555 43 * 2;
#X obj -450 42 * 3;
#X obj -351 46 * 4;
#X obj -253 47 * 5;
#X obj -148 51 * 6;
#X obj -35 55 * 7;
#X obj 64 58 * 8;
#X floatatom -91 -73 5 0 0 0 - - -;
#X obj -656 269 *~;
#X obj -551 271 *~;
#X obj -447 270 *~;
#X obj -347 274 *~;
#X obj -250 275 *~;
#X obj -145 279 *~;
#X obj -42 279 *~;
#X obj 67 286 *~;
#X obj -627 233 vline~;
#X obj -627 198 r A;
#X obj -521 235 vline~;
#X obj -422 232 vline~;
#X obj -323 238 vline~;
#X obj -221 241 vline~;
#X obj -117 245 vline~;
#X obj -9 249 vline~;
#X obj 89 252 vline~;
#X obj -521 200 r B;
#X obj -422 199 r C;
#X obj -323 203 r D;
#X obj -221 206 r E;
#X obj -117 210 r F;
#X obj -9 214 r G;
#X obj 89 217 r H;
#X obj -91 -120 r Freq;
#X floatatom 163 99 5 0 0 0 - - -;
#X obj 163 141 osc~;
#X obj 168 286 *~;
#X obj 188 244 vline~;
#X floatatom 265 99 5 0 0 0 - - -;
#X obj 265 141 osc~;
#X obj 268 278 *~;
#X obj 290 244 vline~;
#X floatatom 372 102 5 0 0 0 - - -;
#X obj 372 144 osc~;
#X obj 375 281 *~;
#X obj 397 247 vline~;
#X floatatom 478 106 5 0 0 0 - - -;
#X obj 478 148 osc~;
#X obj 481 285 *~;
#X obj 503 251 vline~;
#X obj 163 50 * 9;
#X obj 265 50 * 10;
#X obj 372 53 * 11;
#X obj 478 57 * 12;
#X obj 188 209 r I;
#X obj 290 209 r J;
#X obj 397 212 r K;
#X obj 503 216 r L;
#N canvas -9 -9 1920 978 preset 0;
#X obj 104 103 hradio 20 1 0 5 empty empty empty 0 -8 0 10 -262144
-1 -1 0;
#X floatatom 105 130 5 0 0 0 - - -;
#X obj 105 179 sel 0 1 2 3 4;
#X text -673 -18 White Noise;
#X text -669 355 Underwater Submarine;
#X text 295 -26 UFO Flying;
#X text 494 352 Trumpet;
#X text -78 355 Fire Alarm;
#X msg -679 19 \; Freq 2000 \; A 1 50 0 \, 0.8 200 50 \, 0.6 1100 250
\, 0 550 2350 \; B 0.2 50 0 \, 0.4 200 50 \, 0.3 1100 250 \, 0 550
2350 \; C 0.5 50 0 \, 1 200 50 \, 0.2 1100 250 \, 0 550 2350 \; D 0.8
50 0 \, 1.2 200 50 \, 0.8 1100 250 \, 0 550 2350 \; E 0.1 50 0 \, 1.5
200 50 \, 1 1100 250 \, 0 550 2350 \; F 0.3 50 0 \, 2 200 50 \, 0.7
1100 250 \, 0 550 2350 \; G 0.9 50 0 \, 2.5 200 50 \, 0.1 1100 250
\, 0 550 2350 \; H 1.1 50 0 \, 1.3 200 50 \, 0.4 1100 250 \, 0 550
2350 \; I 0.7 50 0 \, 1.8 200 50 \, 0.5 1100 250 \, 0 550 2350 \; J
0.6 50 0 \, 0.8 200 50 \, 1.1 1100 250 \, 0 550 2350 \; K 0.5 50 0
\, 0.2 200 50 \, 0.8 1100 250 \, 0 550 2350 \; L 0.2 50 0 \, 3 200
50 \, 0.7 1100 250 \, 0 550 2350 \; Amp 3 50 0 \, 2 200 50 \, 2 1100
250 \, 0 550 2350;
#X msg -676 391 \; Freq 45 \; A 0.1 50 0 \, 0.8 200 50 \, 0.2 1100
250 \, 0 550 2350 \; B 0.7 50 0 \, 0.4 200 50 \, 0.6 1100 250 \, 0
550 2350 \; C 0.6 50 0 \, 0.2 200 50 \, 0.3 1100 250 \, 0 550 2350
\; D 0.4 50 0 \, 0.4 200 50 \, 0.6 1100 250 \, 0 550 2350 \; E 0.2
50 0 \, 0.9 200 50 \, 0.5 1100 250 \, 0 550 2350 \; F 0.1 50 0 \, 0.1
200 50 \, 0.1 1100 250 \, 0 550 2350 \; G 0.3 50 0 \, 0.3 200 50 \,
0.9 1100 250 \, 0 550 2350 \; H 0.8 50 0 \, 1 200 50 \, 0.7 1100 250
\, 0 550 2350 \; I 0.9 50 0 \, 0.7 200 50 \, 0.5 1100 250 \, 0 550
2350 \; J 0.7 50 0 \, 0.8 200 50 \, 0.8 1100 250 \, 0 550 2350 \; K
0.3 50 0 \, 0.3 200 50 \, 0.2 1100 250 \, 0 550 2350 \; L 0.1 50 0
\, 0.5 200 50 \, 0.3 1100 250 \, 0 550 2350 \; Amp 2 50 0 \, 3 200
50 \, 4 1100 250 \, 0 550 2350;
#X msg -107 387 \; Freq 200 \; A 1 50 0 \, 0.4 100 50 \, 0.4 1100 250
\, 0 550 2350 \; B 0.7 50 0 \, 0.6 200 50 \, 0.6 1100 250 \, 0 550
2350 \; C 0.2 50 0 \, 0.8 300 50 \, 0.8 1100 250 \, 0 550 2350 \; D
0.3 50 0 \, 0.9 400 50 \, 1 1100 250 \, 0 550 2350 \; E 0.6 50 0 \,
0.7 500 50 \, 0.2 1100 250 \, 0 550 2350 \; F 0.2 50 0 \, 0.3 600 50
\, 0.3 1100 250 \, 0 550 2350 \; G 0.5 50 0 \, 0.5 700 50 \, 0.7 1100
250 \, 0 550 2350 \; H 0.9 50 0 \, 0.2 800 50 \, 0.5 1100 250 \, 0
550 2350 \; I 0.2 50 0 \, 0.1 900 50 \, 0.4 1100 250 \, 0 550 2350
\; J 0.1 50 0 \, 1 1000 50 \, 0.9 1100 250 \, 0 550 2350 \; K 0.7 50
0 \, 0.9 1100 50 \, 0.7 1100 250 \, 0 550 2350 \; L 0.9 50 0 \, 0.8
1200 50 \, 1 1100 250 \, 0 550 2350 \; Amp 4 50 0 \, 5 200 50 \, 2
1100 250 \, 0 550 2350;
#X msg 289 11 \; Freq 100 \; A 1 50 0 \, 0.4 200 50 \, 0.3 1100 250
\, 0 550 2350 \; B 0.7 50 0 \, 0.4 200 50 \, 0.1 1100 250 \, 0 550
2350 \; C 0.8 50 0 \, 0.8 200 50 \, 0.2 1100 250 \, 0 550 2350 \; D
0.3 50 0 \, 0.4 200 50 \, 0.8 1100 250 \, 0 550 2350 \; E 0.6 50 0
\, 0.6 200 50 \, 0.6 1100 250 \, 0 550 2350 \; F 0.2 50 0 \, 0.2 200
50 \, 0.5 1100 250 \, 0 550 2350 \; G 0.2 50 0 \, 0.7 200 50 \, 0.9
1100 250 \, 0 550 2350 \; H 0.8 50 0 \, 0.3 200 50 \, 0.2 1100 250
\, 0 550 2350 \; I 0.7 50 0 \, 0.7 200 50 \, 0.4 1100 250 \, 0 550
2350 \; J 0.1 50 0 \, 0.9 200 50 \, 0.5 1100 250 \, 0 550 2350 \; K
0.4 50 0 \, 0.5 200 50 \, 0.6 1100 250 \, 0 550 2350 \; L 0.2 50 0
\, 0.2 200 50 \, 0.9 1100 250 \, 0 550 2350 \; Amp 2 50 0 \, 2 200
50 \, 3 1100 250 \, 0 550 2350;
#X msg 488 389 \; Freq 600 \; A 1 50 0 \, 0.7 200 50 \, 0.2 1100 250
\, 0 550 2350 \; B 0.7 50 0 \, 0.5 200 50 \, 0.5 1100 250 \, 0 550
2350 \; C 0.2 50 0 \, 0.6 200 50 \, 0.6 1100 250 \, 0 550 2350 \; D
0.3 50 0 \, 0.8 200 50 \, 0.9 1100 250 \, 0 550 2350 \; E 0.4 50 0
\, 0.9 200 50 \, 0.4 1100 250 \, 0 550 2350 \; F 0.2 50 0 \, 0.2 200
50 \, 0.6 1100 250 \, 0 550 2350 \; G 0.3 50 0 \, 0.1 200 50 \, 0.8
1100 250 \, 0 550 2350 \; H 0.7 50 0 \, 0.3 200 50 \, 0.7 1100 250
\, 0 550 2350 \; I 0.1 50 0 \, 0.4 200 50 \, 0.6 1100 250 \, 0 550
2350 \; J 0.8 50 0 \, 0.2 200 50 \, 0.1 1100 250 \, 0 550 2350 \; K
0.9 50 0 \, 0.8 200 50 \, 0.2 1100 250 \, 0 550 2350 \; L 0.3 50 0
\, 0.6 200 50 \, 0.5 1100 250 \, 0 550 2350 \; Amp 5 50 0 \, 4 200
50 \, 3 1100 250 \, 0 550 2350;
#X connect 0 0 1 0;
#X connect 1 0 2 0;
#X connect 2 0 8 0;
#X connect 2 1 9 0;
#X connect 2 2 10 0;
#X connect 2 3 12 0;
#X connect 2 4 11 0;
#X coords 0 -1 1 1 110 60 2 100 100;
#X restore 301 -76 pd preset;
#X text 37 -105 0 White Noise 1 Underwater Submarine 2 Fire Alarm 3
Trumpet 4 UFO Flying;
#X connect 1 0 10 0;
#X connect 2 0 1 0;
#X connect 3 0 11 0;
#X connect 4 0 12 0;
#X connect 5 0 13 0;
#X connect 6 0 14 0;
#X connect 7 0 15 0;
#X connect 8 0 16 0;
#X connect 9 0 17 0;
#X connect 10 0 27 0;
#X connect 11 0 28 0;
#X connect 12 0 29 0;
#X connect 13 0 30 0;
#X connect 14 0 31 0;
#X connect 15 0 32 0;
#X connect 16 0 33 0;
#X connect 17 0 34 0;
#X connect 18 0 0 0;
#X connect 18 0 0 1;
#X connect 19 0 3 0;
#X connect 20 0 4 0;
#X connect 21 0 5 0;
#X connect 22 0 6 0;
#X connect 23 0 7 0;
#X connect 24 0 8 0;
#X connect 25 0 9 0;
#X connect 26 0 2 0;
#X connect 26 0 19 0;
#X connect 26 0 20 0;
#X connect 26 0 21 0;
#X connect 26 0 22 0;
#X connect 26 0 23 0;
#X connect 26 0 24 0;
#X connect 26 0 25 0;
#X connect 26 0 68 0;
#X connect 26 0 69 0;
#X connect 26 0 70 0;
#X connect 26 0 71 0;
#X connect 27 0 18 0;
#X connect 28 0 18 0;
#X connect 29 0 18 0;
#X connect 30 0 18 0;
#X connect 31 0 18 0;
#X connect 32 0 18 0;
#X connect 33 0 18 0;
#X connect 34 0 18 0;
#X connect 35 0 27 1;
#X connect 36 0 35 0;
#X connect 37 0 28 1;
#X connect 38 0 29 1;
#X connect 39 0 30 1;
#X connect 40 0 31 1;
#X connect 41 0 32 1;
#X connect 42 0 33 1;
#X connect 43 0 34 1;
#X connect 44 0 37 0;
#X connect 45 0 38 0;
#X connect 46 0 39 0;
#X connect 47 0 40 0;
#X connect 48 0 41 0;
#X connect 49 0 42 0;
#X connect 50 0 43 0;
#X connect 51 0 26 0;
#X connect 52 0 53 0;
#X connect 53 0 54 0;
#X connect 54 0 18 0;
#X connect 55 0 54 1;
#X connect 56 0 57 0;
#X connect 57 0 58 0;
#X connect 58 0 18 0;
#X connect 59 0 58 1;
#X connect 60 0 61 0;
#X connect 61 0 62 0;
#X connect 62 0 18 0;
#X connect 63 0 62 1;
#X connect 64 0 65 0;
#X connect 65 0 66 0;
#X connect 66 0 18 0;
#X connect 67 0 66 1;
#X connect 68 0 52 0;
#X connect 69 0 56 0;
#X connect 70 0 60 0;
#X connect 71 0 64 0;
#X connect 72 0 55 0;
#X connect 73 0 59 0;
#X connect 74 0 63 0;
#X connect 75 0 67 0;
