#N canvas 477 0 1506 960 24;
#X obj 125 236 gemwin;
#X msg 187 154 destroy;
#X msg 58 154 create \, 1;
#X obj 513 75 gemhead;
#X obj 534 668 sphere 1 36;
#X msg 399 555 draw fill;
#X msg 400 601 draw line;
#X floatatom 637 582 5 0 0 0 - - -;
#X obj 112 309 gemhead;
#X obj 112 373 world_light;
#X msg 301 162 lighting \$1;
#X obj 304 141 tgl 15 0 empty empty empty 17 7 0 10 -262144 -1 -1 1
1;
#X floatatom 537 114 5 0 0 0 - - -;
#X floatatom 600 111 5 0 0 0 - - -;
#X floatatom 677 115 5 0 0 0 - - -;
#X floatatom 569 471 5 0 0 0 - - -;
#X floatatom 632 468 5 0 0 0 - - -;
#X floatatom 709 472 5 0 0 0 - - -;
#X obj 514 238 rotateXYZ;
#X floatatom 533 201 5 0 0 0 - - -;
#X floatatom 596 198 5 0 0 0 - - -;
#X floatatom 673 202 5 0 0 0 - - -;
#X obj 526 528 translateXYZ 1 0 0;
#X obj 852 -2 metro 20;
#X obj 1072 38 counter 360;
#X obj 770 26 tgl 15 0 empty empty empty 17 7 0 10 -262144 -1 -1 1
1;
#X obj 756 167 * 2;
#X obj 905 67 gemhead;
#X floatatom 1029 524 5 0 0 0 - - -;
#X floatatom 929 99 5 0 0 0 - - -;
#X floatatom 992 96 5 0 0 0 - - -;
#X floatatom 1069 100 5 0 0 0 - - -;
#X floatatom 956 389 5 0 0 0 - - -;
#X floatatom 1019 386 5 0 0 0 - - -;
#X floatatom 1096 390 5 0 0 0 - - -;
#X obj 906 223 rotateXYZ;
#X floatatom 925 186 5 0 0 0 - - -;
#X floatatom 988 183 5 0 0 0 - - -;
#X floatatom 1065 187 5 0 0 0 - - -;
#X obj 828 163 * -1;
#X obj 1182 100 gemhead;
#X obj 1188 217 pix_image;
#X msg 1272 175 open \$1;
#X obj 1186 410 pix_texture;
#X obj 1271 136 coll images.txt;
#C restore;
#X floatatom 1270 99 5 0 0 0 - - -;
#X floatatom 1229 463 5 0 0 0 - - -;
#X obj 1191 325 rotateXYZ;
#X floatatom 1219 290 5 0 0 0 - - -;
#X floatatom 1296 290 5 0 0 0 - - -;
#X floatatom 1372 299 5 0 0 0 - - -;
#X obj 515 54 tgl 15 0 empty empty empty 17 7 0 10 -262144 -1 -1 0
1;
#X obj 1321 256 * 0.25;
#X obj 513 151 colorRGB 0 0.76 0;
#X obj 905 136 colorRGB 0.83 0 0;
#X obj 566 439 line;
#X obj 637 435 line;
#X obj 709 438 line;
#X obj 906 46 tgl 15 0 empty empty empty 17 7 0 10 -262144 -1 -1 0
1;
#X obj 1181 77 tgl 15 0 empty empty empty 17 7 0 10 -262144 -1 -1 0
1;
#X msg 650 392 \$1 3000;
#X msg 542 394 \$1 3000;
#X msg 756 393 \$1 3000;
#X obj 539 313 random 8;
#X obj 540 349 - 4;
#X obj 645 312 random 8;
#X obj 646 348 - 4;
#X obj 760 318 random 8;
#X obj 761 354 - 4;
#X obj 703 251 bng 15 250 50 0 empty empty empty 17 7 0 10 -262144
-1 -1;
#X obj 955 358 line;
#X obj 1026 354 line;
#X obj 1098 357 line;
#X obj 928 292 r Xb;
#X obj 1039 301 r Yb;
#X obj 1110 297 r Zb;
#X obj 85 641 qlist;
#X msg 173 556 read qlist1.txt;
#X msg 88 469 bang;
#X msg 197 456 rewind;
#X msg 119 81 dimen 800 600;
#X obj 917 424 translateXYZ 0 0 0;
#X obj 202 805 loopPlay;
#N canvas 0 22 450 278 (subpatch) 0;
#X array a1 72576 float 2;
#X coords 0 1 72576 -1 200 140 1;
#X restore 421 765 graph;
#X obj 203 867 output~;
#X obj 289 772 tgl 15 0 empty empty empty 17 7 0 10 -262144 -1 -1 1
1;
#X obj 201 728 coll sound1.txt;
#C restore;
#X obj 1442 71 gemhead;
#X floatatom 1480 146 5 0 0 0 - - -;
#X floatatom 1542 147 5 0 0 0 - - -;
#X floatatom 1619 151 5 0 0 0 - - -;
#X obj 1440 46 tgl 15 0 empty empty empty 17 7 0 10 -262144 -1 -1 0
1;
#X obj 1455 187 colorRGB 0 0.76 0;
#X obj 1450 427 until;
#X obj 1444 471 gemlist;
#X floatatom 1570 44 5 0 0 0 - - -;
#X floatatom 1633 41 5 0 0 0 - - -;
#X floatatom 1736 65 5 0 0 0 - - -;
#X obj 1527 101 translateXYZ -3 0 0;
#X obj 1452 279 route gem_state;
#X obj 1449 332 route float;
#X obj 1455 231 t a a;
#X msg 1450 391 20;
#X obj 1435 518 rotateXYZ 10 20 30;
#X obj 1435 566 separator;
#X obj 1432 661 route gem_state;
#X obj 1429 711 route float;
#X obj 1435 613 t a a;
#X obj 1684 428 until;
#X obj 1678 472 gemlist;
#X msg 1684 392 20;
#X obj 1669 519 rotateXYZ 10 20 30;
#X obj 1672 622 translateXYZ 0.5 0 0;
#X floatatom 1702 571 5 0 0 0 - - -;
#X floatatom 1775 569 5 0 0 0 - - -;
#X floatatom 1851 569 5 0 0 0 - - -;
#X floatatom 1811 662 5 0 0 0 - - -;
#X floatatom 1537 421 5 0 0 0 - - -;
#X floatatom 1609 419 5 0 0 0 - - -;
#X floatatom 1548 474 5 0 0 0 - - -;
#X obj 1673 714 sphere 0.5 36;
#X obj 924 565 square 1 36;
#X obj 1182 513 cube 1;
#X floatatom 40 119 5 0 0 0 - - -;
#X obj 39 88 line;
#X floatatom 282 79 5 0 0 0 - - -;
#X obj 281 48 line;
#X obj 13 54 r Start;
#X obj 252 17 r Stop;
#X floatatom 557 40 5 0 0 0 - - -;
#X obj 556 9 line;
#X obj 553 -24 r Gem1;
#X floatatom 1001 39 5 0 0 0 - - -;
#X obj 1000 8 line;
#X obj 997 -25 r Gem2;
#X floatatom 1208 41 5 0 0 0 - - -;
#X obj 1207 10 line;
#X obj 1204 -23 r Gem3;
#X floatatom 1477 37 5 0 0 0 - - -;
#X obj 1476 6 line;
#X obj 1473 -27 r Gem4;
#X obj 1936 81 gemhead;
#X obj 1928 54 tgl 15 0 empty empty empty 17 7 0 10 -262144 -1 -1 0
1;
#X floatatom 2159 81 5 0 0 0 - - -;
#X floatatom 2073 84 5 0 0 0 - - -;
#X obj 1942 150 scaleXYZ 1 1 1;
#X obj 1936 252 colorRGB 0 0 1;
#X floatatom 1975 202 5 0 0 0 - - -;
#X floatatom 2047 201 5 0 0 0 - - -;
#X floatatom 2127 201 5 0 0 0 - - -;
#X obj 1939 309 t a b;
#X obj 1937 373 t b a;
#X msg 1934 431 5;
#X obj 1931 481 until;
#X obj 1931 528 gemlist;
#X obj 1929 575 separator;
#X obj 1929 627 t a b b b;
#X msg 2095 426 seed 1;
#X msg 2284 431 seed 2;
#X msg 2451 429 seed 3;
#X obj 2440 350 tgl 15 0 empty empty empty 17 7 0 10 -262144 -1 -1
0 1;
#X obj 2093 473 spigot;
#X obj 2093 528 random 200;
#X obj 2094 578 - 100;
#X obj 2093 629 / 30;
#X obj 2285 473 spigot;
#X obj 2285 528 random 200;
#X obj 2286 578 - 100;
#X obj 2285 629 / 30;
#X obj 2453 474 spigot;
#X obj 2453 529 random 200;
#X obj 2454 579 - 100;
#X obj 2453 630 / 30;
#X obj 1952 770 translateXYZ 0.5 0 0;
#X floatatom 1982 719 5 0 0 0 - - -;
#X floatatom 2055 717 5 0 0 0 - - -;
#X floatatom 2131 717 5 0 0 0 - - -;
#X floatatom 2103 802 5 0 0 0 - - -;
#X obj 1998 843 circle 1 36;
#X obj 2603 82 gemhead;
#X obj 2595 55 tgl 15 0 empty empty empty 17 7 0 10 -262144 -1 -1 0
1;
#X floatatom 2826 82 5 0 0 0 - - -;
#X floatatom 2740 85 5 0 0 0 - - -;
#X obj 2609 151 scaleXYZ 1 1 1;
#X obj 2603 253 colorRGB 0 0 1;
#X floatatom 2642 203 5 0 0 0 - - -;
#X floatatom 2714 202 5 0 0 0 - - -;
#X floatatom 2794 202 5 0 0 0 - - -;
#X obj 2606 310 t a b;
#X obj 2604 374 t b a;
#X msg 2601 432 5;
#X obj 2598 482 until;
#X obj 2598 529 gemlist;
#X obj 2596 576 separator;
#X obj 2596 628 t a b b b;
#X msg 2762 427 seed 1;
#X msg 2951 432 seed 2;
#X msg 3118 430 seed 3;
#X obj 3107 351 tgl 15 0 empty empty empty 17 7 0 10 -262144 -1 -1
0 1;
#X obj 2760 474 spigot;
#X obj 2760 529 random 200;
#X obj 2761 579 - 100;
#X obj 2760 630 / 30;
#X obj 2952 474 spigot;
#X obj 2952 529 random 200;
#X obj 2953 579 - 100;
#X obj 2952 630 / 30;
#X obj 3120 475 spigot;
#X obj 3120 530 random 200;
#X obj 3121 580 - 100;
#X obj 3120 631 / 30;
#X obj 2619 771 translateXYZ 0.5 0 0;
#X floatatom 2649 720 5 0 0 0 - - -;
#X floatatom 2722 718 5 0 0 0 - - -;
#X floatatom 2798 718 5 0 0 0 - - -;
#X floatatom 2770 803 5 0 0 0 - - -;
#X obj 2665 844 square 1 36;
#X floatatom 752 -15 5 0 0 0 - - -;
#X obj 688 9 line;
#X obj 633 -22 r Metro;
#X floatatom 356 117 5 0 0 0 - - -;
#X obj 355 86 line;
#X obj 352 53 r Light;
#X floatatom 201 687 5 0 0 0 - - -;
#X obj 181 657 line;
#X floatatom 317 695 5 0 0 0 - - -;
#X obj 273 664 line;
#X obj 163 624 r SoundPlay;
#X obj 293 635 r SoundLoop;
#X floatatom 1968 44 5 0 0 0 - - -;
#X obj 1967 13 line;
#X floatatom 2624 43 5 0 0 0 - - -;
#X obj 2623 12 line;
#X obj 1964 -20 r Gem5;
#X obj 2620 -21 r Gem6;
#X obj 1284 61 line;
#X obj 1281 28 r Image;
#X obj 1132 231 line;
#X obj 1131 196 r Xa;
#X connect 1 0 0 0;
#X connect 2 0 0 0;
#X connect 3 0 53 0;
#X connect 5 0 4 0;
#X connect 6 0 4 0;
#X connect 7 0 4 2;
#X connect 8 0 9 0;
#X connect 10 0 0 0;
#X connect 11 0 10 0;
#X connect 12 0 53 1;
#X connect 13 0 53 2;
#X connect 14 0 53 3;
#X connect 15 0 22 1;
#X connect 16 0 22 2;
#X connect 17 0 22 3;
#X connect 18 0 22 0;
#X connect 19 0 18 1;
#X connect 20 0 18 2;
#X connect 21 0 18 3;
#X connect 22 0 4 0;
#X connect 23 0 24 0;
#X connect 24 0 26 0;
#X connect 24 0 39 0;
#X connect 24 0 52 0;
#X connect 24 0 117 0;
#X connect 24 0 29 0;
#X connect 24 0 90 0;
#X connect 24 0 147 0;
#X connect 24 0 187 0;
#X connect 25 0 23 0;
#X connect 26 0 20 0;
#X connect 26 0 13 0;
#X connect 27 0 54 0;
#X connect 28 0 121 1;
#X connect 29 0 54 1;
#X connect 30 0 54 2;
#X connect 31 0 54 3;
#X connect 32 0 81 1;
#X connect 33 0 81 2;
#X connect 34 0 81 3;
#X connect 35 0 81 0;
#X connect 36 0 35 1;
#X connect 37 0 35 2;
#X connect 38 0 35 3;
#X connect 39 0 36 0;
#X connect 40 0 41 0;
#X connect 41 0 47 0;
#X connect 42 0 41 0;
#X connect 43 0 122 0;
#X connect 44 0 42 0;
#X connect 45 0 44 0;
#X connect 46 0 122 1;
#X connect 47 0 43 0;
#X connect 48 0 47 1;
#X connect 49 0 47 2;
#X connect 50 0 47 3;
#X connect 51 0 3 0;
#X connect 52 0 49 0;
#X connect 53 0 18 0;
#X connect 54 0 35 0;
#X connect 55 0 15 0;
#X connect 56 0 16 0;
#X connect 57 0 17 0;
#X connect 58 0 27 0;
#X connect 59 0 40 0;
#X connect 60 0 56 0;
#X connect 61 0 55 0;
#X connect 62 0 57 0;
#X connect 63 0 64 0;
#X connect 64 0 61 0;
#X connect 65 0 66 0;
#X connect 66 0 60 0;
#X connect 67 0 68 0;
#X connect 68 0 62 0;
#X connect 69 0 63 0;
#X connect 69 0 65 0;
#X connect 69 0 67 0;
#X connect 70 0 32 0;
#X connect 71 0 33 0;
#X connect 72 0 34 0;
#X connect 73 0 70 0;
#X connect 74 0 71 0;
#X connect 75 0 72 0;
#X connect 77 0 76 0;
#X connect 78 0 76 0;
#X connect 79 0 76 0;
#X connect 80 0 0 0;
#X connect 81 0 121 0;
#X connect 82 0 84 0;
#X connect 82 0 84 1;
#X connect 85 0 82 1;
#X connect 86 0 82 0;
#X connect 87 0 98 0;
#X connect 88 0 92 1;
#X connect 89 0 92 2;
#X connect 90 0 92 3;
#X connect 91 0 87 0;
#X connect 92 0 101 0;
#X connect 93 0 94 0;
#X connect 94 0 103 0;
#X connect 95 0 98 1;
#X connect 96 0 98 2;
#X connect 97 0 98 3;
#X connect 98 0 92 0;
#X connect 99 0 100 0;
#X connect 100 1 102 0;
#X connect 101 0 99 0;
#X connect 101 1 94 1;
#X connect 102 0 93 0;
#X connect 103 0 104 0;
#X connect 104 0 107 0;
#X connect 105 0 106 0;
#X connect 106 1 110 0;
#X connect 107 0 105 0;
#X connect 107 1 109 1;
#X connect 108 0 109 0;
#X connect 109 0 111 0;
#X connect 110 0 108 0;
#X connect 111 0 112 0;
#X connect 112 0 120 0;
#X connect 113 0 112 1;
#X connect 114 0 112 2;
#X connect 115 0 112 3;
#X connect 116 0 120 1;
#X connect 117 0 103 1;
#X connect 118 0 103 3;
#X connect 119 0 103 2;
#X connect 123 0 2 0;
#X connect 124 0 123 0;
#X connect 125 0 1 0;
#X connect 126 0 125 0;
#X connect 127 0 124 0;
#X connect 128 0 126 0;
#X connect 129 0 51 0;
#X connect 130 0 129 0;
#X connect 131 0 130 0;
#X connect 132 0 58 0;
#X connect 133 0 132 0;
#X connect 134 0 133 0;
#X connect 135 0 59 0;
#X connect 136 0 135 0;
#X connect 137 0 136 0;
#X connect 138 0 91 0;
#X connect 139 0 138 0;
#X connect 140 0 139 0;
#X connect 141 0 145 0;
#X connect 142 0 141 0;
#X connect 143 0 145 2;
#X connect 144 0 145 1;
#X connect 145 0 146 0;
#X connect 146 0 150 0;
#X connect 147 0 146 1;
#X connect 148 0 146 2;
#X connect 149 0 146 3;
#X connect 150 0 151 0;
#X connect 150 1 157 0;
#X connect 150 1 158 0;
#X connect 150 1 159 0;
#X connect 151 0 152 0;
#X connect 151 1 154 1;
#X connect 152 0 153 0;
#X connect 153 0 154 0;
#X connect 154 0 155 0;
#X connect 155 0 156 0;
#X connect 156 0 173 0;
#X connect 156 1 162 0;
#X connect 156 2 166 0;
#X connect 156 3 170 0;
#X connect 157 0 161 0;
#X connect 158 0 165 0;
#X connect 159 0 169 0;
#X connect 160 0 161 1;
#X connect 160 0 165 1;
#X connect 160 0 169 1;
#X connect 161 0 162 0;
#X connect 162 0 163 0;
#X connect 163 0 164 0;
#X connect 164 0 174 0;
#X connect 165 0 166 0;
#X connect 166 0 167 0;
#X connect 167 0 168 0;
#X connect 168 0 175 0;
#X connect 169 0 170 0;
#X connect 170 0 171 0;
#X connect 171 0 172 0;
#X connect 172 0 176 0;
#X connect 173 0 178 0;
#X connect 174 0 173 1;
#X connect 175 0 173 2;
#X connect 176 0 173 3;
#X connect 177 0 178 1;
#X connect 179 0 183 0;
#X connect 180 0 179 0;
#X connect 181 0 183 2;
#X connect 182 0 183 1;
#X connect 183 0 184 0;
#X connect 184 0 188 0;
#X connect 185 0 184 1;
#X connect 186 0 184 2;
#X connect 187 0 184 3;
#X connect 188 0 189 0;
#X connect 188 1 195 0;
#X connect 188 1 196 0;
#X connect 188 1 197 0;
#X connect 189 0 190 0;
#X connect 189 1 192 1;
#X connect 190 0 191 0;
#X connect 191 0 192 0;
#X connect 192 0 193 0;
#X connect 193 0 194 0;
#X connect 194 0 211 0;
#X connect 194 1 200 0;
#X connect 194 2 204 0;
#X connect 194 3 208 0;
#X connect 195 0 199 0;
#X connect 196 0 203 0;
#X connect 197 0 207 0;
#X connect 198 0 199 1;
#X connect 198 0 203 1;
#X connect 198 0 207 1;
#X connect 199 0 200 0;
#X connect 200 0 201 0;
#X connect 201 0 202 0;
#X connect 202 0 212 0;
#X connect 203 0 204 0;
#X connect 204 0 205 0;
#X connect 205 0 206 0;
#X connect 206 0 213 0;
#X connect 207 0 208 0;
#X connect 208 0 209 0;
#X connect 209 0 210 0;
#X connect 210 0 214 0;
#X connect 211 0 216 0;
#X connect 212 0 211 1;
#X connect 213 0 211 2;
#X connect 214 0 211 3;
#X connect 215 0 216 1;
#X connect 217 0 25 0;
#X connect 218 0 217 0;
#X connect 219 0 218 0;
#X connect 220 0 11 0;
#X connect 221 0 220 0;
#X connect 222 0 221 0;
#X connect 223 0 86 0;
#X connect 224 0 223 0;
#X connect 225 0 85 0;
#X connect 226 0 225 0;
#X connect 227 0 224 0;
#X connect 228 0 226 0;
#X connect 229 0 142 0;
#X connect 230 0 229 0;
#X connect 231 0 180 0;
#X connect 232 0 231 0;
#X connect 233 0 230 0;
#X connect 234 0 232 0;
#X connect 235 0 45 0;
#X connect 236 0 235 0;
#X connect 237 0 48 0;
#X connect 238 0 237 0;
